<svg width="674" height="674" viewBox="0 0 674 674" fill="none" xmlns="http://www.w3.org/2000/svg">
<mask id="mask0_15_119" style="mask-type:alpha" maskUnits="userSpaceOnUse" x="0" y="0" width="674" height="674">
<circle cx="337" cy="337" r="337" fill="#D9D9D9"/>
</mask>
<g mask="url(#mask0_15_119)">
<path d="M-67 288.535C-41.5719 264.986 32.8086 217.437 126.905 215.633C244.526 213.378 341.479 318.974 467.742 309.203C594.006 299.433 622.566 199.098 760.103 188.952" stroke="#ECECEC" stroke-width="2"/>
<path d="M-67 323.859C-41.5719 300.31 32.8086 252.76 126.905 250.957C244.526 248.702 341.479 354.298 467.742 344.527C594.006 334.757 622.566 234.422 760.103 224.276" stroke="#ECECEC" stroke-width="2"/>
<path d="M-67 359.934C-41.5719 336.385 32.8086 288.836 126.905 287.032C244.526 284.777 341.479 390.373 467.742 380.603C594.006 370.832 622.566 270.498 760.103 260.351" stroke="#ECECEC" stroke-width="2"/>
<path d="M-67 396.01C-41.5719 372.461 32.8086 324.911 126.905 323.108C244.526 320.853 341.479 426.448 467.742 416.678C594.006 406.908 622.566 306.573 760.103 296.427" stroke="#ECECEC" stroke-width="2"/>
<path d="M-61.7388 435.843C-36.3106 412.294 38.0698 364.744 132.166 362.941C249.787 360.686 346.74 466.281 473.004 456.511C599.268 446.741 627.827 346.406 765.365 336.26" stroke="#ECECEC" stroke-width="2"/>
<path d="M-67 474.173C-41.5719 450.624 32.8086 403.075 126.905 401.271C244.526 399.016 341.479 504.612 467.742 494.841C594.006 485.071 622.566 384.736 760.103 374.59" stroke="#ECECEC" stroke-width="2"/>
<path d="M-67 509.497C-41.5719 485.948 32.8086 438.398 126.905 436.595C244.526 434.34 341.479 539.936 467.742 530.165C594.006 520.395 622.566 420.06 760.103 409.914" stroke="#ECECEC" stroke-width="2"/>
<path d="M-67 545.572C-41.5719 522.023 32.8086 474.474 126.905 472.67C244.526 470.415 341.479 576.011 467.742 566.241C594.006 556.47 622.566 456.135 760.103 445.989" stroke="#ECECEC" stroke-width="2"/>
<path d="M-67 581.648C-41.5719 558.099 32.8086 510.549 126.905 508.745C244.526 506.491 341.479 612.086 467.742 602.316C594.006 592.546 622.566 492.211 760.103 482.065" stroke="#ECECEC" stroke-width="2"/>
<path d="M-61.7388 621.481C-36.3106 597.932 38.0698 550.382 132.166 548.579C249.787 546.324 346.74 651.92 473.004 642.149C599.268 632.379 627.827 532.044 765.365 521.898" stroke="#ECECEC" stroke-width="2"/>
<path d="M-64.7456 659.059C-39.3175 635.51 35.063 587.961 129.16 586.157C246.78 583.902 343.733 689.498 469.997 679.728C596.261 669.957 624.82 569.623 762.358 559.476" stroke="#ECECEC" stroke-width="2"/>
<path d="M-64.7456 694.383C-39.3175 670.834 35.063 623.285 129.16 621.481C246.78 619.226 343.733 724.822 469.997 715.052C596.261 705.281 624.82 604.946 762.358 594.8" stroke="#ECECEC" stroke-width="2"/>
<path d="M-64.7456 730.459C-39.3175 706.909 35.063 659.36 129.16 657.556C246.78 655.302 343.733 760.897 469.997 751.127C596.261 741.356 624.82 641.022 762.358 630.875" stroke="#ECECEC" stroke-width="2"/>
<path d="M-64.7456 766.534C-39.3175 742.985 35.063 695.435 129.16 693.632C246.78 691.377 343.733 796.973 469.997 787.202C596.261 777.432 624.82 677.097 762.358 666.951" stroke="#ECECEC" stroke-width="2"/>
<path d="M-61.7388 -11.3414C-36.3106 -34.8906 38.0698 -82.44 132.166 -84.2438C249.787 -86.4985 346.74 19.0972 473.004 9.32676C599.268 -0.443662 627.827 -100.778 765.365 -110.925" stroke="#ECECEC" stroke-width="2"/>
<path d="M-61.7388 24.7339C-36.3106 1.18467 38.0698 -46.3647 132.166 -48.1685C249.787 -50.4232 346.74 55.1725 473.004 45.4021C599.268 35.6317 627.827 -64.703 765.365 -74.8492" stroke="#ECECEC" stroke-width="2"/>
<path d="M-56.478 64.5671C-31.0499 41.0179 43.3305 -6.53145 137.427 -8.33522C255.048 -10.5899 352.001 95.0057 478.264 85.2353C604.528 75.4649 633.088 -24.8698 770.625 -35.016" stroke="#ECECEC" stroke-width="2"/>
<path d="M-61.7388 102.897C-36.3106 79.348 38.0698 31.7986 132.166 29.9949C249.787 27.7401 346.74 133.336 473.004 123.565C599.268 113.795 627.827 13.4603 765.365 3.31409" stroke="#ECECEC" stroke-width="2"/>
<path d="M-61.7388 138.221C-36.3106 114.672 38.0698 67.1225 132.166 65.3187C249.787 63.064 346.74 168.66 473.004 158.889C599.268 149.119 627.827 48.7841 765.365 38.6379" stroke="#ECECEC" stroke-width="2"/>
<path d="M-61.7388 174.297C-36.3106 150.747 38.0698 103.198 132.166 101.394C249.787 99.1394 346.74 204.735 473.004 194.965C599.268 185.194 627.827 84.8596 765.365 74.7134" stroke="#ECECEC" stroke-width="2"/>
<path d="M-61.7388 210.372C-36.3106 186.823 38.0698 139.273 132.166 137.469C249.787 135.215 346.74 240.81 473.004 231.04C599.268 221.27 627.827 120.935 765.365 110.789" stroke="#ECECEC" stroke-width="2"/>
<path d="M-56.478 250.205C-31.0499 226.656 43.3305 179.106 137.427 177.303C255.048 175.048 352.001 280.644 478.264 270.873C604.528 261.103 633.088 160.768 770.625 150.622" stroke="#ECECEC" stroke-width="2"/>
<path d="M-5.07701 756.691C21.3318 721.952 67.9471 635.362 43.1373 566.918C12.1251 481.363 -37.5351 460.563 -37.4963 360.587C-37.4575 260.611 54.5542 227.096 42.9718 97.7862C33.7059 -5.66158 -34.2032 -56.0438 -66.9995 -68.3039" stroke="#ECECEC" stroke-width="2"/>
<path d="M82.38 762.461C108.789 727.721 155.404 641.132 130.594 572.687C99.5822 487.132 49.922 466.333 49.9608 366.356C49.9996 266.38 142.011 232.865 130.429 103.556C121.163 0.107953 53.2538 -50.2742 20.4575 -62.5343" stroke="#ECECEC" stroke-width="2"/>
<path d="M38.819 764.082C65.2278 729.343 111.843 642.753 87.0333 574.309C56.0211 488.754 6.36092 467.954 6.39973 367.978C6.43853 268.002 98.4502 234.487 86.8678 105.177C77.6019 1.72954 9.69279 -48.6526 -23.1035 -60.9128" stroke="#ECECEC" stroke-width="2"/>
<path d="M262.632 755.751C289.041 721.011 335.657 634.422 310.847 565.977C279.835 480.422 230.174 459.623 230.213 359.646C230.252 259.67 322.264 226.155 310.681 96.8458C301.415 -6.60201 233.506 -56.9842 200.71 -69.2443" stroke="#ECECEC" stroke-width="2"/>
<path d="M350.089 761.52C376.498 726.781 423.114 640.191 398.304 571.747C367.292 486.192 317.631 465.392 317.67 365.416C317.709 265.44 409.721 231.925 398.138 102.615C388.872 -0.832476 320.963 -51.2147 288.167 -63.4748" stroke="#ECECEC" stroke-width="2"/>
<path d="M306.529 763.142C332.938 728.403 379.553 641.813 354.743 573.369C323.731 487.813 274.071 467.014 274.11 367.038C274.148 267.061 366.16 233.547 354.578 104.237C345.312 0.789106 277.403 -49.5931 244.606 -61.8532" stroke="#ECECEC" stroke-width="2"/>
<path d="M128.777 756.221C155.186 721.482 201.802 634.892 176.992 566.448C145.98 480.892 96.3194 460.093 96.3582 360.117C96.397 260.14 188.409 226.626 176.826 97.316C167.56 -6.13179 99.6513 -56.514 66.855 -68.7741" stroke="#ECECEC" stroke-width="2"/>
<path d="M216.235 761.991C242.643 727.251 289.259 640.661 264.449 572.217C233.437 486.662 183.776 465.863 183.815 365.886C183.854 265.91 275.866 232.395 264.283 103.086C255.017 -0.362262 187.108 -50.7444 154.312 -63.0046" stroke="#ECECEC" stroke-width="2"/>
<path d="M172.674 763.612C199.083 728.873 245.698 642.283 220.888 573.839C189.876 488.284 140.216 467.484 140.255 367.508C140.294 267.531 232.305 234.017 220.723 104.707C211.457 1.25932 143.548 -49.1229 110.751 -61.383" stroke="#ECECEC" stroke-width="2"/>
<path d="M394.006 763.225C420.415 728.486 467.031 641.896 442.221 573.452C411.209 487.896 361.548 467.097 361.587 367.121C361.626 267.144 453.638 233.63 442.055 104.32C432.789 0.872113 364.88 -49.5101 332.084 -61.7702" stroke="#ECECEC" stroke-width="2"/>
<path d="M481.464 768.995C507.873 734.255 554.488 647.665 529.678 579.221C498.666 493.666 449.006 472.866 449.045 372.89C449.084 272.914 541.095 239.399 529.513 110.089C520.247 6.64164 452.338 -43.7405 419.541 -56.0007" stroke="#ECECEC" stroke-width="2"/>
<path d="M437.903 770.616C464.312 735.877 510.927 649.287 486.117 580.843C455.105 495.287 405.445 474.488 405.484 374.512C405.523 274.535 497.534 241.021 485.952 111.711C476.686 8.26323 408.777 -42.119 375.98 -54.3791" stroke="#ECECEC" stroke-width="2"/>
<path d="M661.715 762.285C688.124 727.545 734.74 640.955 709.93 572.511C678.918 486.956 629.257 466.157 629.296 366.18C629.335 266.204 721.347 232.689 709.764 103.379C700.498 -0.0683162 632.589 -50.4505 599.793 -62.7106" stroke="#ECECEC" stroke-width="2"/>
<path d="M705.612 769.675C732.021 734.936 778.636 648.346 753.826 579.902C722.814 494.347 673.154 473.547 673.193 373.571C673.232 273.595 765.243 240.08 753.661 110.77C744.395 7.32255 676.486 -43.0596 643.689 -55.3197" stroke="#ECECEC" stroke-width="2"/>
<path d="M527.861 762.755C554.27 728.015 600.885 641.425 576.075 572.981C545.063 487.426 495.403 466.627 495.442 366.65C495.481 266.674 587.492 233.159 575.91 103.85C566.644 0.401899 498.735 -49.9803 465.938 -62.2404" stroke="#ECECEC" stroke-width="2"/>
<path d="M615.318 768.524C641.727 733.785 688.342 647.195 663.532 578.751C632.52 493.196 582.86 472.396 582.899 372.42C582.938 272.444 674.949 238.929 663.367 109.619C654.101 6.17143 586.192 -44.2108 553.396 -56.4709" stroke="#ECECEC" stroke-width="2"/>
<path d="M571.757 770.146C598.166 735.406 644.781 648.816 619.971 580.372C588.959 494.817 539.299 474.018 539.338 374.041C539.377 274.065 631.388 240.55 619.806 111.241C610.54 7.79277 542.631 -42.5894 509.834 -54.8495" stroke="#ECECEC" stroke-width="2"/>
</g>
</svg>
