<svg width="1609" height="1333" viewBox="0 0 1609 1333" fill="none" xmlns="http://www.w3.org/2000/svg">
<mask id="mask0_77_132" style="mask-type:alpha" maskUnits="userSpaceOnUse" x="0" y="0" width="1609" height="1333">
<rect width="1609" height="1333" fill="#D9D9D9"/>
</mask>
<g mask="url(#mask0_77_132)">
<mask id="mask1_77_132" style="mask-type:alpha" maskUnits="userSpaceOnUse" x="37" y="-565" width="2610" height="1836">
<path d="M248.342 472.053C119.735 369.445 53.8988 203.754 37.0567 133.734L1249.75 -564.09L2646.59 473.893L1656.09 1056.93C1561.82 1156.51 1305.45 1333.95 1034.06 1247.15C694.815 1138.65 966.667 820.282 784.118 668.43C616.342 528.867 409.101 600.312 248.342 472.053Z" fill="#D9D9D9"/>
</mask>
<g mask="url(#mask1_77_132)">
<path d="M37.0566 133.735C53.8987 203.754 119.735 369.446 248.342 472.053C409.101 600.312 616.341 528.867 784.118 668.431C966.667 820.283 694.815 1138.65 1034.06 1247.15C1305.45 1333.95 1561.82 1156.51 1656.09 1056.93" stroke="#ECECEC" stroke-width="2"/>
<path d="M78.6445 107.774C95.4866 177.794 161.323 343.485 289.93 446.093C450.689 574.352 657.929 502.907 825.706 642.47C1008.26 794.322 736.402 1112.69 1075.65 1221.19C1347.04 1307.99 1603.41 1130.55 1697.67 1030.97" stroke="#ECECEC" stroke-width="2"/>
<path d="M123.997 81.2925C140.839 151.312 206.675 317.003 335.282 419.611C496.042 547.87 703.282 476.425 871.058 615.988C1053.61 767.84 781.755 1086.2 1121 1194.71C1392.39 1281.51 1648.76 1104.06 1743.03 1004.49" stroke="#ECECEC" stroke-width="2"/>
<path d="M222.485 32.3801C239.327 102.4 305.163 268.091 433.771 370.699C594.53 498.958 801.77 427.513 969.547 567.076C1152.1 718.928 880.243 1037.29 1219.49 1145.79C1490.88 1232.6 1747.25 1055.15 1841.51 955.579" stroke="#ECECEC" stroke-width="2"/>
<path d="M269.592 3.09009C286.434 73.1098 352.27 238.801 480.877 341.409C641.636 469.668 848.877 398.223 1016.65 537.786C1199.2 689.638 927.35 1008 1266.59 1116.5C1537.99 1203.31 1794.36 1025.86 1888.62 926.289" stroke="#ECECEC" stroke-width="2"/>
<path d="M317.826 -32.127C334.668 37.8927 400.504 203.584 529.112 306.191C689.871 434.451 897.111 363.006 1064.89 502.569C1247.44 654.421 975.584 972.784 1314.83 1081.29C1586.22 1168.09 1842.59 990.644 1936.85 891.072" stroke="#ECECEC" stroke-width="2"/>
<path d="M174.936 57.5632C191.778 127.583 257.614 293.274 386.221 395.882C546.98 524.141 754.22 452.696 921.997 592.259C1104.55 744.111 832.694 1062.47 1171.94 1170.98C1443.33 1257.78 1699.7 1080.33 1793.96 980.762" stroke="#ECECEC" stroke-width="2"/>
<path d="M364.558 -59.4414C381.4 10.5783 447.236 176.27 575.843 278.877C736.602 407.136 943.842 335.691 1111.62 475.255C1294.17 627.107 1022.32 945.47 1361.56 1053.97C1632.95 1140.77 1889.32 963.33 1983.59 863.758" stroke="#ECECEC" stroke-width="2"/>
<path d="M406.146 -85.4016C422.988 -15.3819 488.824 150.309 617.431 252.917C778.19 381.176 985.43 309.731 1153.21 449.294C1335.76 601.146 1063.9 919.509 1403.15 1028.01C1674.54 1114.81 1930.91 937.37 2025.17 837.797" stroke="#ECECEC" stroke-width="2"/>
<path d="M451.497 -111.884C468.339 -41.8639 534.175 123.827 662.782 226.435C823.542 354.694 1030.78 283.249 1198.56 422.812C1381.11 574.664 1109.26 893.028 1448.5 1001.53C1719.89 1088.33 1976.26 910.888 2070.53 811.316" stroke="#ECECEC" stroke-width="2"/>
<path d="M549.985 -160.796C566.827 -90.7767 632.663 74.9145 761.271 177.522C922.03 305.781 1129.27 234.336 1297.05 373.9C1479.6 525.752 1207.74 844.115 1546.99 952.617C1818.38 1039.42 2074.75 861.975 2169.01 762.403" stroke="#ECECEC" stroke-width="2"/>
<path d="M597.094 -190.086C613.936 -120.067 679.772 45.6245 808.379 148.232C969.138 276.491 1176.38 205.046 1344.15 344.61C1526.7 496.462 1254.85 814.825 1594.09 923.327C1865.49 1010.13 2121.86 832.685 2216.12 733.113" stroke="#ECECEC" stroke-width="2"/>
<path d="M645.326 -225.303C662.168 -155.284 728.004 10.4075 856.612 113.015C1017.37 241.274 1224.61 169.829 1392.39 309.392C1574.94 461.244 1303.08 779.608 1642.33 888.11C1913.72 974.912 2170.09 797.468 2264.35 697.896" stroke="#ECECEC" stroke-width="2"/>
<path d="M502.437 -135.613C519.279 -65.5931 585.115 100.098 713.722 202.706C874.481 330.965 1081.72 259.52 1249.5 399.083C1432.05 550.935 1160.19 869.298 1499.44 977.801C1770.83 1064.6 2027.2 887.159 2121.47 787.586" stroke="#ECECEC" stroke-width="2"/>
<path d="M695.636 -252.152C712.478 -182.132 778.314 -16.4407 906.921 86.1668C1067.68 214.426 1274.92 142.981 1442.7 282.544C1625.25 434.396 1353.39 752.759 1692.64 861.262C1964.03 948.064 2220.4 770.62 2314.66 671.047" stroke="#ECECEC" stroke-width="2"/>
<path d="M737.224 -278.112C754.066 -208.092 819.902 -42.4009 948.509 60.2066C1109.27 188.466 1316.51 117.021 1484.28 256.584C1666.83 408.436 1394.98 726.799 1734.22 835.302C2005.62 922.104 2261.99 744.66 2356.25 645.087" stroke="#ECECEC" stroke-width="2"/>
<path d="M782.575 -304.594C799.417 -234.574 865.253 -68.8828 993.861 33.7247C1154.62 161.984 1361.86 90.5388 1529.64 230.102C1712.19 381.954 1440.33 700.317 1779.58 808.82C2050.97 895.622 2307.34 718.178 2401.6 618.605" stroke="#ECECEC" stroke-width="2"/>
<path d="M881.064 -353.506C897.907 -283.486 963.743 -117.795 1092.35 -15.1877C1253.11 113.072 1460.35 41.6264 1628.13 181.19C1810.67 333.042 1538.82 651.405 1878.07 759.907C2149.46 846.709 2405.83 669.265 2500.09 569.693" stroke="#ECECEC" stroke-width="2"/>
<path d="M928.171 -382.796C945.013 -312.776 1010.85 -147.085 1139.46 -44.4777C1300.22 83.7817 1507.46 12.3364 1675.23 151.9C1857.78 303.752 1585.93 622.115 1925.17 730.617C2196.57 817.419 2452.94 639.975 2547.2 540.403" stroke="#ECECEC" stroke-width="2"/>
<path d="M976.403 -418.013C993.245 -347.994 1059.08 -182.302 1187.69 -79.6947C1348.45 48.5647 1555.69 -22.8807 1723.46 116.683C1906.01 268.535 1634.16 586.898 1973.4 695.4C2244.8 782.202 2501.17 604.758 2595.43 505.186" stroke="#ECECEC" stroke-width="2"/>
<path d="M833.514 -328.323C850.356 -258.303 916.192 -92.6121 1044.8 9.99545C1205.56 138.255 1412.8 66.8095 1580.57 206.373C1763.12 358.225 1491.27 676.588 1830.51 785.09C2101.91 871.892 2358.28 694.448 2452.54 594.876" stroke="#ECECEC" stroke-width="2"/>
<path d="M1032.18 -435.038C1049.02 -365.018 1114.86 -199.327 1243.46 -96.7196C1404.22 31.5398 1611.46 -39.9056 1779.24 99.6578C1961.79 251.51 1689.94 569.873 2029.18 678.375C2300.57 765.177 2556.95 587.733 2651.21 488.161" stroke="#ECECEC" stroke-width="2"/>
<path d="M1130.67 -483.95C1147.51 -413.931 1213.35 -248.24 1341.95 -145.632C1502.71 -17.3726 1709.95 -88.8179 1877.73 50.7455C2060.28 202.597 1788.42 520.961 2127.67 629.463C2399.06 716.265 2655.43 538.821 2749.7 439.249" stroke="#ECECEC" stroke-width="2"/>
<path d="M1177.77 -513.24C1194.62 -443.221 1260.45 -277.53 1389.06 -174.922C1549.82 -46.6626 1757.06 -118.108 1924.84 21.4554C2107.38 173.307 1835.53 491.671 2174.78 600.173C2446.17 686.975 2702.54 509.531 2796.8 409.959" stroke="#ECECEC" stroke-width="2"/>
<path d="M1226.01 -548.458C1242.85 -478.438 1308.69 -312.747 1437.29 -210.139C1598.05 -81.8797 1805.29 -153.325 1973.07 -13.7616C2155.62 138.09 1883.77 456.454 2223.01 564.956C2494.4 651.758 2750.78 474.314 2845.04 374.742" stroke="#ECECEC" stroke-width="2"/>
<path d="M1083.12 -458.767C1099.96 -388.747 1165.8 -223.056 1294.4 -120.449C1455.16 7.81076 1662.4 -63.6346 1830.18 75.9288C2012.73 227.781 1740.88 546.144 2080.12 654.646C2351.51 741.448 2607.89 564.004 2702.15 464.432" stroke="#ECECEC" stroke-width="2"/>
<path d="M22.0762 177.277C96.1707 176.578 271.415 157.268 379.635 85.6122C514.911 -3.95704 527.098 -64.2564 703.004 -135.743C878.91 -207.229 983.089 -147.05 1204.89 -250.151C1382.33 -332.631 1437.59 -430.784 1443.05 -469.55" stroke="#ECECEC" stroke-width="2"/>
<path d="M1.83496 123.01C75.9295 122.312 251.174 103.001 359.394 31.3458C494.67 -58.2234 506.857 -118.523 682.763 -190.009C858.669 -261.496 962.848 -201.317 1184.65 -304.417C1362.09 -386.897 1417.35 -485.05 1422.8 -523.817" stroke="#ECECEC" stroke-width="2"/>
<path d="M-25.1191 71.9185C48.9754 71.2201 224.22 51.9094 332.44 -19.746C467.715 -109.315 479.903 -169.615 655.809 -241.101C831.714 -312.587 935.894 -252.409 1157.69 -355.509C1335.13 -437.989 1390.4 -536.142 1395.85 -574.908" stroke="#ECECEC" stroke-width="2"/>
<path d="M99.4229 332.396C173.521 332.771 349.146 316.002 458.862 245.926C596.008 158.33 609.466 98.2164 786.854 29.2895C964.242 -39.6374 1067.13 22.0415 1291.08 -77.8292C1470.23 -157.726 1527.56 -255.063 1533.83 -293.745" stroke="#ECECEC" stroke-width="2"/>
<path d="M138.079 369.299C212.178 369.133 387.618 351.083 496.584 280.208C632.793 191.614 645.611 131.405 822.259 61.1854C998.907 -9.03388 1102.45 51.8914 1325.32 -49.6104C1503.62 -130.812 1559.91 -228.564 1565.77 -267.29" stroke="#ECECEC" stroke-width="2"/>
<path d="M181.779 409.413C255.878 409.248 431.318 391.197 540.284 320.322C676.493 231.729 689.311 171.52 865.959 101.3C1042.61 31.0809 1146.15 92.0062 1369.02 -9.49568C1547.32 -90.6972 1603.61 -188.449 1609.47 -227.175" stroke="#ECECEC" stroke-width="2"/>
<path d="M214.816 454.212C288.915 454.046 464.355 435.996 573.322 365.121C709.53 276.528 722.349 216.318 898.996 146.099C1075.64 75.8795 1179.19 136.805 1402.06 35.3029C1580.36 -45.8986 1636.65 -143.651 1642.51 -182.377" stroke="#ECECEC" stroke-width="2"/>
<path d="M269.116 483.561C343.215 483.395 518.655 465.344 627.621 394.47C763.83 305.876 776.648 245.667 953.296 175.447C1129.94 105.228 1233.49 166.153 1456.36 64.6515C1634.66 -16.55 1690.95 -114.302 1696.81 -153.028" stroke="#ECECEC" stroke-width="2"/>
<path d="M326.992 513.375C401.091 513.21 576.531 495.159 685.497 424.285C821.706 335.691 834.524 275.482 1011.17 205.262C1187.82 135.043 1291.36 195.968 1514.24 94.4665C1692.53 13.265 1748.82 -84.4872 1754.68 -123.213" stroke="#ECECEC" stroke-width="2"/>
<path d="M384.239 540.072C458.338 539.906 633.778 521.855 742.744 450.981C878.953 362.387 891.771 302.178 1068.42 231.958C1245.07 161.739 1348.61 222.664 1571.48 121.163C1749.78 39.961 1806.07 -57.7912 1811.93 -96.5171" stroke="#ECECEC" stroke-width="2"/>
<path d="M445.492 552.105C519.591 551.939 695.031 533.889 803.997 463.014C940.206 374.421 953.024 314.211 1129.67 243.992C1306.32 173.773 1409.86 234.698 1632.74 133.196C1811.03 51.9947 1867.32 -45.7575 1873.18 -84.4834" stroke="#ECECEC" stroke-width="2"/>
<path d="M523.88 570.422C597.979 570.256 773.419 552.206 882.386 481.331C1018.59 392.738 1031.41 332.528 1208.06 262.309C1384.71 192.089 1488.25 253.015 1711.13 151.513C1889.42 70.3114 1945.71 -27.4408 1951.57 -66.1668" stroke="#ECECEC" stroke-width="2"/>
<path d="M613.818 592.269C687.917 592.103 863.357 574.052 972.324 503.178C1108.53 414.584 1121.35 354.375 1298 284.155C1474.65 213.936 1578.19 274.861 1801.06 173.36C1979.36 92.158 2035.65 -5.59417 2041.51 -44.3201" stroke="#ECECEC" stroke-width="2"/>
<path d="M682.614 622.494C756.713 622.329 932.153 604.278 1041.12 533.404C1177.33 444.81 1190.15 384.601 1366.79 314.381C1543.44 244.162 1646.99 305.087 1869.86 203.585C2048.16 122.384 2104.45 24.6317 2110.3 -14.0942" stroke="#ECECEC" stroke-width="2"/>
<path d="M745.38 645.861C819.479 645.695 994.919 627.645 1103.89 556.77C1240.09 468.176 1252.91 407.967 1429.56 337.748C1606.21 267.528 1709.75 328.454 1932.63 226.952C2110.92 145.75 2167.21 47.9981 2173.07 9.27221" stroke="#ECECEC" stroke-width="2"/>
<path d="M798.742 680.149C872.841 679.983 1048.28 661.933 1157.25 591.058C1293.46 502.464 1306.27 442.255 1482.92 372.036C1659.57 301.816 1763.11 362.742 1985.99 261.24C2164.28 180.038 2220.57 82.286 2226.43 43.56" stroke="#ECECEC" stroke-width="2"/>
<path d="M824.558 717.932C898.657 717.766 1074.1 699.716 1183.06 628.841C1319.27 540.248 1332.09 480.038 1508.74 409.819C1685.39 339.6 1788.93 400.525 2011.8 299.023C2190.1 217.822 2246.39 120.069 2252.25 81.3435" stroke="#ECECEC" stroke-width="2"/>
<path d="M842.414 771.887C916.513 771.721 1091.95 753.671 1200.92 682.796C1337.13 594.203 1349.95 533.993 1526.59 463.774C1703.24 393.555 1806.79 454.48 2029.66 352.978C2207.96 271.777 2264.25 174.024 2270.1 135.299" stroke="#ECECEC" stroke-width="2"/>
<path d="M847.275 817.062C921.374 816.896 1096.81 798.846 1205.78 727.971C1341.99 639.378 1354.81 579.168 1531.46 508.949C1708.1 438.73 1811.65 499.655 2034.52 398.153C2212.82 316.952 2269.11 219.2 2274.96 180.474" stroke="#ECECEC" stroke-width="2"/>
<path d="M855.084 859.584C929.184 859.419 1104.62 841.368 1213.59 770.494C1349.8 681.9 1362.62 621.691 1539.26 551.471C1715.91 481.252 1819.46 542.177 2042.33 440.675C2220.63 359.474 2276.92 261.722 2282.77 222.996" stroke="#ECECEC" stroke-width="2"/>
<path d="M846.83 903.05C920.929 902.884 1096.37 884.834 1205.34 813.959C1341.54 725.365 1354.36 665.156 1531.01 594.937C1707.66 524.717 1811.2 585.643 2034.07 484.141C2212.37 402.939 2268.66 305.187 2274.52 266.461" stroke="#ECECEC" stroke-width="2"/>
<path d="M849.99 937.88C924.089 937.714 1099.53 919.664 1208.5 848.789C1344.7 760.196 1357.52 699.986 1534.17 629.767C1710.82 559.548 1814.36 620.473 2037.23 518.971C2215.53 437.77 2271.82 340.017 2277.68 301.291" stroke="#ECECEC" stroke-width="2"/>
<path d="M845.874 978.848C919.973 978.683 1095.41 960.632 1204.38 889.758C1340.59 801.164 1353.41 740.955 1530.05 670.735C1706.7 600.516 1810.25 661.441 2033.12 559.939C2211.42 478.738 2267.71 380.986 2273.56 342.26" stroke="#ECECEC" stroke-width="2"/>
<path d="M847.721 1020.59C921.82 1020.43 1097.26 1002.38 1206.23 931.502C1342.44 842.909 1355.25 782.699 1531.9 712.48C1708.55 642.261 1812.09 703.186 2034.97 601.684C2213.26 520.483 2269.55 422.731 2275.41 384.005" stroke="#ECECEC" stroke-width="2"/>
<path d="M856.347 1065.25C930.446 1065.08 1105.89 1047.03 1214.85 976.156C1351.06 887.562 1363.88 827.353 1540.53 757.134C1717.18 686.914 1820.72 747.84 2043.59 646.338C2221.89 565.136 2278.18 467.384 2284.04 428.658" stroke="#ECECEC" stroke-width="2"/>
<path d="M865.415 1114.01C939.514 1113.84 1114.95 1095.79 1223.92 1024.92C1360.13 936.322 1372.95 876.113 1549.59 805.894C1726.24 735.674 1829.79 796.6 2052.66 695.098C2230.96 613.896 2287.25 516.144 2293.1 477.418" stroke="#ECECEC" stroke-width="2"/>
<path d="M892.999 1168.22C967.098 1168.05 1142.54 1150 1251.5 1079.13C1387.71 990.533 1400.53 930.324 1577.18 860.104C1753.83 789.885 1857.37 850.81 2080.24 749.309C2258.54 668.107 2314.83 570.355 2320.69 531.629" stroke="#ECECEC" stroke-width="2"/>
<path d="M955.336 1206.71C1029.44 1206.55 1204.88 1188.5 1313.84 1117.62C1450.05 1029.03 1462.87 968.819 1639.52 898.6C1816.16 828.38 1919.71 889.306 2142.58 787.804C2320.88 706.602 2377.17 608.85 2383.03 570.124" stroke="#ECECEC" stroke-width="2"/>
<path d="M1094.8 1257.29C1168.9 1257.12 1344.34 1239.07 1453.31 1168.2C1589.52 1079.6 1602.33 1019.39 1778.98 949.173C1955.63 878.954 2059.18 939.879 2282.05 838.377C2460.34 757.176 2516.63 659.423 2522.49 620.697" stroke="#ECECEC" stroke-width="2"/>
<path d="M1023.76 1238.91C1097.86 1238.75 1273.3 1220.7 1382.26 1149.82C1518.47 1061.23 1531.29 1001.02 1707.94 930.801C1884.58 860.582 1988.13 921.507 2211 820.005C2389.3 738.804 2445.59 641.052 2451.45 602.326" stroke="#ECECEC" stroke-width="2"/>
<path d="M85.2139 288.761C159.308 288.063 334.553 268.752 442.773 197.097C578.048 107.528 590.236 47.2282 766.142 -24.2582C942.047 -95.7446 1046.23 -35.5659 1268.03 -138.666C1445.47 -221.146 1500.73 -319.299 1506.18 -358.066" stroke="#ECECEC" stroke-width="2"/>
<path d="M58.2607 237.669C132.355 236.971 307.6 217.66 415.82 146.005C551.095 56.4358 563.283 -3.86356 739.189 -75.35C915.094 -146.836 1019.27 -86.6577 1241.07 -189.758C1418.51 -272.238 1473.78 -370.391 1479.23 -409.157" stroke="#ECECEC" stroke-width="2"/>
</g>
</g>
</svg>
