<svg width="871" height="449" viewBox="0 0 871 449" fill="none" xmlns="http://www.w3.org/2000/svg">
<path d="M236.43 216.352C241.82 213.07 246.43 209.633 250.258 206.039C254.164 202.445 257.367 198.461 259.867 194.086C262.367 189.789 264.203 184.984 265.375 179.672C266.547 174.281 267.133 168.188 267.133 161.391V2.83594H304.281V154.711C304.281 162.836 303.93 170.258 303.227 176.977C302.523 183.617 301.352 189.711 299.711 195.258C298.148 200.883 296 206.039 293.266 210.727C290.609 215.414 287.289 219.867 283.305 224.086C279.398 228.305 274.75 232.367 269.359 236.273C264.047 240.18 257.875 244.125 250.844 248.109L236.43 216.352ZM341.078 93.8906C341.078 80.0625 343.617 67.4062 348.695 55.9219C353.773 44.4375 360.883 34.5938 370.023 26.3906C379.242 18.1094 390.258 11.7031 403.07 7.17188C415.961 2.64062 430.219 0.375 445.844 0.375C461.391 0.375 475.609 2.64062 488.5 7.17188C501.391 11.7031 512.406 18.1094 521.547 26.3906C530.766 34.5938 537.914 44.4375 542.992 55.9219C548.07 67.4062 550.609 80.0625 550.609 93.8906C550.609 107.797 548.07 120.57 542.992 132.211C537.914 143.773 530.766 153.734 521.547 162.094C512.406 170.453 501.391 176.977 488.5 181.664C475.609 186.273 461.391 188.578 445.844 188.578C430.219 188.578 415.961 186.273 403.07 181.664C390.258 176.977 379.242 170.453 370.023 162.094C360.883 153.734 353.773 143.773 348.695 132.211C343.617 120.57 341.078 107.797 341.078 93.8906ZM378.227 93.8906C378.227 103.344 379.906 111.859 383.266 119.438C386.703 127.016 391.43 133.5 397.445 138.891C403.539 144.203 410.688 148.305 418.891 151.195C427.172 154.086 436.156 155.531 445.844 155.531C455.531 155.531 464.477 154.086 472.68 151.195C480.961 148.305 488.109 144.203 494.125 138.891C500.141 133.5 504.867 127.016 508.305 119.438C511.742 111.859 513.461 103.344 513.461 93.8906C513.461 84.4375 511.742 75.9609 508.305 68.4609C504.867 60.9609 500.141 54.6328 494.125 49.4766C488.109 44.2422 480.961 40.2578 472.68 37.5234C464.477 34.7891 455.531 33.4219 445.844 33.4219C436.156 33.4219 427.172 34.7891 418.891 37.5234C410.688 40.2578 403.539 44.2422 397.445 49.4766C391.43 54.6328 386.703 60.9609 383.266 68.4609C379.906 75.9609 378.227 84.4375 378.227 93.8906ZM556.586 216.352C561.977 213.07 566.586 209.633 570.414 206.039C574.32 202.445 577.523 198.461 580.023 194.086C582.523 189.789 584.359 184.984 585.531 179.672C586.703 174.281 587.289 168.188 587.289 161.391V2.83594H624.438V154.711C624.438 162.836 624.086 170.258 623.383 176.977C622.68 183.617 621.508 189.711 619.867 195.258C618.305 200.883 616.156 206.039 613.422 210.727C610.766 215.414 607.445 219.867 603.461 224.086C599.555 228.305 594.906 232.367 589.516 236.273C584.203 240.18 578.031 244.125 571 248.109L556.586 216.352ZM661.234 93.8906C661.234 80.0625 663.773 67.4062 668.852 55.9219C673.93 44.4375 681.039 34.5938 690.18 26.3906C699.398 18.1094 710.414 11.7031 723.227 7.17188C736.117 2.64062 750.375 0.375 766 0.375C781.547 0.375 795.766 2.64062 808.656 7.17188C821.547 11.7031 832.562 18.1094 841.703 26.3906C850.922 34.5938 858.07 44.4375 863.148 55.9219C868.227 67.4062 870.766 80.0625 870.766 93.8906C870.766 107.797 868.227 120.57 863.148 132.211C858.07 143.773 850.922 153.734 841.703 162.094C832.562 170.453 821.547 176.977 808.656 181.664C795.766 186.273 781.547 188.578 766 188.578C750.375 188.578 736.117 186.273 723.227 181.664C710.414 176.977 699.398 170.453 690.18 162.094C681.039 153.734 673.93 143.773 668.852 132.211C663.773 120.57 661.234 107.797 661.234 93.8906ZM698.383 93.8906C698.383 103.344 700.062 111.859 703.422 119.438C706.859 127.016 711.586 133.5 717.602 138.891C723.695 144.203 730.844 148.305 739.047 151.195C747.328 154.086 756.312 155.531 766 155.531C775.688 155.531 784.633 154.086 792.836 151.195C801.117 148.305 808.266 144.203 814.281 138.891C820.297 133.5 825.023 127.016 828.461 119.438C831.898 111.859 833.617 103.344 833.617 93.8906C833.617 84.4375 831.898 75.9609 828.461 68.4609C825.023 60.9609 820.297 54.6328 814.281 49.4766C808.266 44.2422 801.117 40.2578 792.836 37.5234C784.633 34.7891 775.688 33.4219 766 33.4219C756.312 33.4219 747.328 34.7891 739.047 37.5234C730.844 40.2578 723.695 44.2422 717.602 49.4766C711.586 54.6328 706.859 60.9609 703.422 68.4609C700.062 75.9609 698.383 84.4375 698.383 93.8906ZM0.648438 353.305C0.648438 340.258 3.10938 328.109 8.03125 316.859C12.9531 305.531 20.0625 295.727 29.3594 287.445C38.7344 279.086 50.1406 272.523 63.5781 267.758C77.0938 262.992 92.3672 260.609 109.398 260.609C124.32 260.609 137.992 262.133 150.414 265.18C162.914 268.148 174.516 272.719 185.219 278.891L168.109 307.016C164.906 304.906 161.195 303.031 156.977 301.391C152.836 299.75 148.383 298.383 143.617 297.289C138.93 296.117 134.047 295.219 128.969 294.594C123.969 293.969 119.008 293.656 114.086 293.656C102.211 293.656 91.625 295.141 82.3281 298.109C73.0312 301 65.1797 305.102 58.7734 310.414C52.4453 315.648 47.6016 321.938 44.2422 329.281C40.9609 336.547 39.3203 344.555 39.3203 353.305C39.3203 362.367 41.0391 370.688 44.4766 378.266C47.9141 385.844 52.875 392.406 59.3594 397.953C65.9219 403.422 73.8906 407.719 83.2656 410.844C92.7188 413.891 103.383 415.414 115.258 415.414C120.648 415.414 126 415.023 131.312 414.242C136.625 413.461 141.742 412.406 146.664 411.078C151.664 409.672 156.469 408.031 161.078 406.156C165.688 404.203 169.984 402.094 173.969 399.828L191.078 427.953C181.078 434.359 169.516 439.398 156.391 443.07C143.266 446.664 129.32 448.461 114.555 448.461C95.7266 448.461 79.2031 446.039 64.9844 441.195C50.7656 436.273 38.8906 429.555 29.3594 421.039C19.8281 412.445 12.6406 402.367 7.79688 390.805C3.03125 379.164 0.648438 366.664 0.648438 353.305ZM231.977 262.836H269.125V310.648H383.031V262.836H420.297V446H383.031V342.406H269.125V446H231.977V262.836ZM472.328 262.836H628.305V295.414H509.477V331.977H614.711V362.562H509.477V413.539H630.766V446H472.328V262.836ZM671.781 262.836H708.93L823.07 322.602V262.836H860.219V446H823.07V361.977L708.93 302.562V446H671.781V262.836Z" fill="#F1EEE4"/>
</svg>
